<?xml version="1.0" encoding="utf-8"?><svg fill="none" height="100%" width="100%" viewBox="0 0 626 626" xmlns:xlink="http://www.w3.org/1999/xlink" xmlns="http://www.w3.org/2000/svg"><defs /><g id="Shape Layer 1"><g><g transform="translate(313,0)"><animateTransform repeatCount="indefinite" type="translate" attributeName="transform" dur="2.24s" begin="0s" calcMode="spline" values="313 0; 313 0; 385 0; 313 0; 313 0" keyTimes="0; 0.071429; 0.482143; 0.892857; 1" keySplines="0 0 1 1; 0.477 0 0.508 1; 0.342 0 0.308 1; 0 0 1 1" fill="freeze" /><g transform="translate(0,313)"><g transform="scale(1,1) translate(0,0)"><g id="Shape 1"><path stroke-linejoin="round" stroke-linecap="round" stroke-width="50" stroke-opacity="1" stroke="#4a90e2" d="M92.5,-86.5C92.5,-86.5,188.5,13,188.5,13C188.5,13,87.5,118,87.5,118" /></g></g></g></g></g></g><g opacity="0.66" id="Shape Layer 3"><g><g transform="translate(194,0)"><animateTransform repeatCount="indefinite" type="translate" attributeName="transform" dur="2.24s" begin="0s" calcMode="spline" values="194 0; 194 0; 266 0; 194 0; 194 0" keyTimes="0; 0.035714; 0.446429; 0.892857; 1" keySplines="0 0 1 1; 0.477 0 0.508 1; 0.342 0 0.308 1; 0 0 1 1" fill="freeze" /><g transform="translate(0,313)"><g transform="scale(1,1) translate(0,0)"><g id="Shape 1"><path stroke-linejoin="round" stroke-linecap="round" stroke-width="50" stroke-opacity="1" stroke="#4a90e2" d="M92.5,-86.5C92.5,-86.5,188.5,13,188.5,13C188.5,13,87.5,118,87.5,118" /></g></g></g></g></g></g><g opacity="0.33" id="Shape Layer 2"><g><g transform="translate(73,0)"><animateTransform repeatCount="indefinite" type="translate" attributeName="transform" dur="2.24s" begin="0s" calcMode="spline" values="73 0; 145 0; 73 0; 73 0" keyTimes="0; 0.410714; 0.892857; 1" keySplines="0.477 0 0.508 1; 0.342 0 0.308 1; 0 0 1 1" fill="freeze" /><g transform="translate(0,313)"><g transform="scale(1,1) translate(0,0)"><g id="Shape 1"><path stroke-linejoin="round" stroke-linecap="round" stroke-width="50" stroke-opacity="1" stroke="#4a90e2" d="M92.5,-86.5C92.5,-86.5,188.5,13,188.5,13C188.5,13,87.5,118,87.5,118" /></g></g></g></g></g></g></svg>