<svg width="64" height="64" viewBox="0 0 64 64" fill="none" xmlns="http://www.w3.org/2000/svg">
<mask id="mask0_91_886" style="mask-type:alpha" maskUnits="userSpaceOnUse" x="0" y="0" width="64" height="64">
<rect width="64" height="64" fill="#D9D9D9"/>
</mask>
<g mask="url(#mask0_91_886)">
<path d="M24 58.6666V38.4L11.7333 50.6666L8 46.9333L22.9333 32L8 17.0666L11.7333 13.3333L24 25.6V5.33331H26.6667L41.8667 20.5333L30.4 32L41.8667 43.4666L26.6667 58.6666H24ZM29.3333 25.6L34.4 20.5333L29.3333 15.6V25.6ZM29.3333 48.4L34.4 43.4666L29.3333 38.4V48.4ZM44.1333 38.2666L38 32L44.1333 25.8666C44.5333 26.8444 44.8556 27.8444 45.1 28.8666C45.3444 29.8889 45.4667 30.9333 45.4667 32C45.4667 33.0666 45.3444 34.1222 45.1 35.1666C44.8556 36.2111 44.5333 37.2444 44.1333 38.2666ZM52 45.8666L48.6667 42.6666C49.5556 41.0222 50.2444 39.3 50.7333 37.5C51.2222 35.7 51.4667 33.8666 51.4667 32C51.4667 30.1333 51.2222 28.3 50.7333 26.5C50.2444 24.7 49.5556 22.9778 48.6667 21.3333L52 18C53.2889 20.1333 54.2778 22.3778 54.9667 24.7333C55.6556 27.0889 56 29.5111 56 32C56 34.4889 55.6556 36.9 54.9667 39.2333C54.2778 41.5666 53.2889 43.7778 52 45.8666Z" fill="#1C1B1F"/>
</g>
</svg>
